<svg width="24" height="24" viewBox="0 0 24 24" fill="none" xmlns="http://www.w3.org/2000/svg">
<g id="ep:arrow-left-bold">
<path id="Vector" d="M12.6457 2.03918C12.9269 2.32047 13.0849 2.70193 13.0849 3.09968C13.0849 3.49743 12.9269 3.87889 12.6457 4.16018L5.22068 11.5852L12.6457 19.0102C12.9189 19.2931 13.0701 19.672 13.0667 20.0653C13.0633 20.4586 12.9055 20.8348 12.6274 21.1129C12.3493 21.391 11.9731 21.5488 11.5798 21.5522C11.1865 21.5556 10.8076 21.4044 10.5247 21.1312L2.03918 12.6457C1.75797 12.3644 1.6 11.9829 1.6 11.5852C1.6 11.1874 1.75797 10.806 2.03918 10.5247L10.5247 2.03918C10.806 1.75797 11.1874 1.6 11.5852 1.6C11.9829 1.6 12.3644 1.75797 12.6457 2.03918Z" fill="#181717"/>
</g>
</svg>
